# xmcd
#
# Track frame offsets:
#	150
#	9827
#	26147
#	36651
#	49970
#	62825
#	73060
#	81702
#	93122
#	102039
#	111037
#	122181
#	133481
#	143336
#	155445
#	168421
#
# Disc length: 2398 seconds
#
# Revision: 1
# Processed by: cddbd v1.5.2PL0 Copyright (c) Steve Scherf et al.
# Submitted via: audiograbber 1.83.01
#
DISCID=e1095c10
DTITLE=Jive Number One - Jive Number One
DYEAR=1900
DGENRE=Blues
TTITLE0=It´s late - 44
TTITLE1=Everybody needs Somebody -44
TTITLE2=Sweet little sixteen - 44
TTITLE3=Memphis Tennessee - 44
TTITLE4=Whole lotta shakin going on - 44
TTITLE5=Roll over beethoven - 44
TTITLE6=Kansas City - 40
TTITLE7=River deep Mountain high - 40
TTITLE8=Summertimes Blues - 40
TTITLE9=Stager Lee - 40
TTITLE10=Crocodile Rock - 40
TTITLE11=Say Mama - 38
TTITLE12=Splish Splash - 38
TTITLE13=Highschool Confidencle - 38
TTITLE14=Johnny be good - 38
TTITLE15=Back in the USSR - 38
EXTD=
EXTT0=
EXTT1=
EXTT2=
EXTT3=
EXTT4=
EXTT5=
EXTT6=
EXTT7=
EXTT8=
EXTT9=
EXTT10=
EXTT11=
EXTT12=
EXTT13=
EXTT14=
EXTT15=
PLAYORDER=
